<svg width="250" height="103" viewBox="0 0 250 103" fill="none" xmlns="http://www.w3.org/2000/svg" class="animate-svg">
<g clip-path="url(#clip0_1_2)">
<path d="M36.7722 0H44.9083C50.825 0.736202 56.655 2.54964 61.7814 5.62978C66.2581 8.40136 70.3397 11.8821 73.4848 16.1207C81.5993 26.6927 83.9541 41.4005 79.591 53.9917C75.688 65.6627 66.2094 75.3145 54.5872 79.3853C49.1902 81.3557 43.3818 81.9566 37.6654 81.6534C25.7508 80.809 14.4317 74.378 7.51359 64.645C3.30749 58.8637 0.871533 51.9509 0 44.8812V36.7993C0.790334 30.7797 2.54423 24.8306 5.77052 19.6447C9.04554 14.1827 13.6414 9.53814 19.033 6.15486C24.3596 2.73369 30.5145 0.763268 36.7722 0ZM40.1825 6.65288C35.4081 6.83693 30.5415 7.7247 26.303 10.0145C30.6227 10.6533 34.9209 11.5843 38.9483 13.3274C36.9617 14.5075 34.9479 15.6497 33.1182 17.068C32.5715 17.3765 32.0302 18.0965 31.3102 17.8854C26.7144 16.7323 21.9399 15.9853 17.2087 16.2614C14.6212 18.5187 12.6724 21.4202 10.8915 24.338C19.596 24.1701 28.8634 25.4639 36.0522 30.7527C37.9523 32.0573 39.4301 33.8544 40.7996 35.6841C42.586 33.2428 44.773 31.1099 47.3497 29.513C48.7301 31.3265 49.856 33.3131 50.7654 35.3972C49.0224 36.5611 47.5121 38.066 46.3103 39.7765C44.7892 42.2071 44.0638 45.114 44.1938 47.9776C44.2154 56.9149 44.1938 65.8467 44.2154 74.784C47.7665 74.4809 51.2256 73.5173 54.506 72.1315C54.5276 64.2769 54.5276 56.4223 54.5114 48.5677C54.4897 42.4723 53.4504 36.1713 50.1429 30.9367C48.2104 27.613 45.2818 25.0525 42.3262 22.6653C44.616 21.4744 46.9599 20.3051 49.4771 19.688C51.8806 21.7991 54.0134 24.2351 55.7186 26.9417C59.3508 32.6527 61.0668 39.4572 61.2076 46.1858C61.3537 53.4883 61.148 60.7908 61.3104 68.0932C70.3289 61.3646 75.8342 49.9426 74.8815 38.6506C74.692 36.1334 74.4484 33.5242 73.5011 31.1803C68.9702 30.5794 64.3743 31.1587 59.8922 31.8894C58.934 29.7783 57.9217 27.6888 56.6984 25.7183C61.2725 24.5599 66.0416 24.0619 70.7566 24.338C68.981 21.3986 67.0485 18.4429 64.3798 16.2397C57.8676 16.1152 51.2418 17.1004 45.1898 19.6014C40.8754 21.3336 37.0483 24.1268 33.8707 27.5047C31.7379 26.6386 29.6862 25.5397 27.4668 24.8576C29.2099 22.1185 31.727 19.9803 34.2604 18.0045C40.3666 13.387 47.8802 11.0593 55.3721 9.96037C50.6788 7.64351 45.4117 6.51755 40.1825 6.64747V6.65288ZM8.18483 31.2074C6.95602 33.9735 6.82611 37.1565 6.63664 40.1555C6.61499 45.5092 7.68681 50.9116 10.1065 55.7131C12.4613 60.6446 16.0828 64.9157 20.4079 68.2286C20.4621 61.0127 20.3646 53.8023 20.4458 46.5864C20.527 42.1908 21.2362 37.8115 22.6328 33.6325C24.8468 34.0926 26.9526 34.975 29.0096 35.9007C28.0677 39.3272 27.1528 42.808 27.1691 46.3915C27.1583 54.9661 27.1474 63.5461 27.1853 72.1261C30.4495 73.539 33.9194 74.5188 37.4651 74.8381C37.4921 66.5451 37.4597 58.252 37.4867 49.9643C37.4813 47.0303 37.4488 43.9177 36.0793 41.2435C34.3795 37.4705 30.7906 34.9154 27.0229 33.4539C21.0521 31.1857 14.5183 30.5686 8.18483 31.2182V31.2074Z" fill="#ECBC38" style="stroke-dasharray: 903.638; stroke-dashoffset: 903.638; animation-delay: 0s; animation-duration: 2.12208s;"></path>
<path d="M1.45616 92.4637C2.6146 91.4243 4.33601 91.8357 5.74346 91.7924C7.29164 91.6355 8.61789 92.7993 9.11591 94.1851C9.94955 96.5832 8.20648 99.306 9.61393 101.58C9.3162 101.948 9.02388 102.321 8.73157 102.695H8.37429C6.54462 101.266 4.17903 102.792 2.18695 101.888C1.07724 101.52 0.389754 100.508 0 99.463V94.4125C0.303142 93.6492 0.790334 92.9509 1.45616 92.4637ZM2.80406 94.001C1.73765 95.4897 2.17071 97.5034 2.31687 99.1978C2.78782 100.551 4.56878 100.199 5.64602 100.345C5.27792 99.8528 4.89899 99.371 4.52006 98.8892C4.9856 98.4182 5.46197 97.9527 5.93292 97.498C6.33891 97.8499 6.75032 98.2071 7.15631 98.5644C7.08594 96.8863 7.39991 95.0296 6.22523 93.6546C5.09387 93.7953 3.91378 93.7087 2.80406 94.0065V94.001Z" fill="#943B37" style="stroke-dasharray: 58.6089; stroke-dashoffset: 58.6089; animation-delay: 0.0285714s; animation-duration: 0.476691s;"></path>
<path d="M10.7128 91.7924H12.8889C12.9106 94.2284 12.7699 96.6752 12.9323 99.1111C13.0459 100.113 14.2314 100.405 15.0651 100.307C15.8013 100.324 16.976 100.145 17.1492 99.2465C17.3657 96.7672 17.2358 94.2717 17.2466 91.7924H19.4227C19.4065 94.4612 19.5635 97.1353 19.2982 99.7986C18.9031 101.563 16.911 102.359 15.2545 102.283C13.4303 102.516 11.2108 101.65 10.7778 99.6904C10.5937 97.0595 10.7128 94.4287 10.7128 91.7978V91.7924Z" fill="#943B37" style="stroke-dasharray: 51.0984; stroke-dashoffset: 51.0984; animation-delay: 0.0571429s; animation-duration: 0.509283s;"></path>
<path d="M24.2188 91.6409C24.863 91.8141 25.7345 91.7654 26.2109 92.3392C26.5628 92.7722 26.7252 93.319 26.9309 93.8278C27.9702 96.5994 29.0799 99.3439 30.1247 102.115C29.3452 102.105 28.5603 102.094 27.7807 102.088C27.4776 101.309 27.1853 100.529 26.9038 99.7445C25.7291 99.7283 24.5545 99.7283 23.3744 99.7228C23.0387 100.513 22.7356 101.32 22.4054 102.11C21.8424 102.105 20.711 102.088 20.1481 102.083C21.4527 98.5861 22.8439 95.1162 24.208 91.6409H24.2188ZM25.0958 94.8888C24.6952 95.8957 24.3163 96.908 23.9536 97.9256C24.7547 97.9256 25.5613 97.9365 26.3679 97.9419C25.9673 96.9134 25.6046 95.8686 25.0958 94.8834V94.8888Z" fill="#943B37" style="stroke-dasharray: 46.1018; stroke-dashoffset: 46.1018; animation-delay: 0.0857143s; animation-duration: 0.539998s;"></path>
<path d="M30.7364 91.7924H32.9072C32.918 94.564 32.9072 97.341 32.9126 100.113C34.7585 100.113 36.6098 100.113 38.4611 100.118V102.088C36.4095 102.099 34.3579 102.164 32.3063 102.094C31.6621 102.094 30.9367 101.715 30.8339 101.027C30.5903 97.9527 30.7635 94.8672 30.7364 91.787V91.7924Z" fill="#943B37" style="stroke-dasharray: 35.3903; stroke-dashoffset: 35.3903; animation-delay: 0.114286s; animation-duration: 0.646117s;"></path>
<path d="M39.4572 91.7924H41.6333C41.6387 95.2298 41.6387 98.6618 41.6333 102.099H39.4572C39.4518 98.6618 39.4518 95.2244 39.4572 91.7924Z" fill="#943B37" style="stroke-dasharray: 24.9654; stroke-dashoffset: 24.9654; animation-delay: 0.142857s; animation-duration: 0.857349s;"></path>
<path d="M42.6239 91.7978C46.2345 91.787 49.8398 91.7708 53.445 91.8303C54.2083 93.2053 54.9553 94.6019 55.9676 95.8199C56.8012 94.5153 57.5645 93.1674 58.344 91.8303C59.1397 91.8195 59.9409 91.8141 60.7366 91.8141C59.6702 93.9956 58.1924 95.9444 57.0827 98.0989C56.8229 99.4089 56.8932 100.768 56.8229 102.099C56.3086 102.099 55.2747 102.099 54.7604 102.099C54.7604 100.789 54.7063 99.4847 54.598 98.1855C53.7914 96.0635 52.3407 94.2825 51.2256 92.3229C51.1985 92.6802 51.1444 93.4002 51.1119 93.7629C50.0617 93.7683 49.0169 93.7737 47.9722 93.7845C47.9614 96.5561 47.9722 99.3277 47.9668 102.099H45.7961C45.7852 99.3277 45.7961 96.5507 45.7907 93.7791C44.7351 93.7737 43.6795 93.7629 42.6239 93.7629V91.7924V91.7978Z" fill="#943B37" style="stroke-dasharray: 75.1591; stroke-dashoffset: 75.1591; animation-delay: 0.171429s; animation-duration: 0.440177s;"></path>
<path d="M72.5592 91.7924C75.4012 91.787 78.2431 91.787 81.0851 91.7924V93.7574C80.0241 93.7629 78.9739 93.7737 77.9183 93.7791C77.9075 96.5507 77.9183 99.3223 77.9129 102.094H75.7422C75.7314 99.3223 75.7422 96.5453 75.7368 93.7737C74.6812 93.7683 73.6256 93.7574 72.57 93.7574V91.787L72.5592 91.7924Z" fill="#943B37" style="stroke-dasharray: 37.613; stroke-dashoffset: 37.613; animation-delay: 0.2s; animation-duration: 0.617961s;"></path>
<path d="M82.0811 91.787C84.1111 91.787 86.141 91.7058 88.1656 91.8736C89.1021 92.0523 90.1198 92.6586 90.3146 93.66C90.3742 94.5099 90.6124 95.441 90.3146 96.2746C90.0115 96.7943 89.5676 97.2111 89.1779 97.6658C89.9195 99.0624 90.3525 100.584 90.8289 102.088C90.2767 102.094 89.167 102.11 88.6149 102.115C88.1223 100.908 87.7758 99.6254 87.0829 98.5157C86.141 98.5157 85.2099 98.5373 84.268 98.5427C84.2626 99.7283 84.2572 100.919 84.2518 102.105H82.0811C82.0757 98.6673 82.0757 95.2298 82.0811 91.787ZM84.2626 93.7141C84.2626 94.6669 84.2572 95.6142 84.2626 96.5723C85.5293 96.5453 86.796 96.4965 88.0573 96.3829C88.1981 95.6088 88.2684 94.8184 88.3226 94.0389C87.0017 93.6979 85.6159 93.817 84.268 93.7141H84.2626Z" fill="#943B37" style="stroke-dasharray: 56.3124; stroke-dashoffset: 56.3124; animation-delay: 0.228571s; animation-duration: 0.48524s;"></path>
<path d="M91.5922 91.7924H93.7683C93.7629 93.8386 93.6925 95.8903 93.7953 97.9419C93.9523 98.7268 93.9415 99.9502 94.9267 100.172C95.9931 100.427 97.8174 100.562 98.1909 99.1978C98.4778 96.7456 98.31 94.2609 98.3316 91.7924H100.508C100.492 94.4612 100.649 97.1353 100.383 99.7986C100.058 101.266 98.5157 102.218 97.0704 102.24C95.0999 102.543 92.2363 102.056 91.8466 99.6849C91.3431 97.0974 91.6679 94.4124 91.5922 91.7924Z" fill="#943B37" style="stroke-dasharray: 51.158; stroke-dashoffset: 51.158; animation-delay: 0.257143s; animation-duration: 0.508966s;"></path>
<path d="M101.867 94.1634C101.823 92.6531 103.485 91.6517 104.876 91.7924C106.24 91.8357 107.875 91.4514 109.05 92.3716C109.873 93.0104 110.019 94.1093 110.311 95.0404C109.813 94.9917 108.823 94.8942 108.325 94.8455C107.929 94.5857 107.675 94.1743 107.366 93.8224C106.625 93.7953 105.152 93.7466 104.416 93.7195C104.275 94.2771 104.14 94.8239 104.016 95.3868C106.148 95.9823 108.584 95.9227 110.306 97.5196C110.284 98.5427 110.203 99.5604 110.078 100.573C109.629 101.563 108.541 102.105 107.491 102.159C106.159 102.327 104.757 102.408 103.485 101.888C102.143 101.466 101.932 99.8798 101.542 98.7376C102.088 98.7484 103.182 98.7755 103.723 98.7863C104.113 99.6254 104.736 100.616 105.872 100.324C106.917 100.589 108.601 99.9556 108.048 98.5427C106.327 97.5738 104.043 98.0826 102.43 96.7997C101.672 96.1555 101.953 95.0079 101.861 94.1526L101.867 94.1634Z" fill="#943B37" style="stroke-dasharray: 57.9334; stroke-dashoffset: 57.9334; animation-delay: 0.285714s; animation-duration: 0.479091s;"></path>
<path d="M110.825 91.7924C113.667 91.787 116.509 91.787 119.351 91.7924V93.7574C118.29 93.7629 117.24 93.7737 116.185 93.7791C116.174 96.5507 116.185 99.3223 116.179 102.094H114.008C113.998 99.3223 114.008 96.5453 114.003 93.7737C112.947 93.7683 111.892 93.7574 110.836 93.7574V91.787L110.825 91.7924Z" fill="#943B37" style="stroke-dasharray: 37.613; stroke-dashoffset: 37.613; animation-delay: 0.314286s; animation-duration: 0.617961s;"></path>
<path d="M134.227 91.6896C134.952 91.9657 136.208 91.4406 136.555 92.415C137.594 94.0985 138.428 95.8903 139.429 97.5954C140.577 95.7495 141.372 93.6817 142.617 91.9061C143.094 91.8466 144.036 91.7221 144.512 91.6625C144.534 95.1432 144.528 98.6185 144.523 102.105H142.352C142.347 100.172 142.352 98.2342 142.314 96.3017C141.297 97.7741 140.853 100.015 138.904 100.529C138.124 99.0299 137.291 97.5629 136.436 96.1068C136.398 98.1043 136.392 100.107 136.387 102.105H134.216C134.211 98.6348 134.205 95.1595 134.222 91.695L134.227 91.6896Z" fill="#943B37" style="stroke-dasharray: 64.6299; stroke-dashoffset: 64.6299; animation-delay: 0.342857s; animation-duration: 0.458964s;"></path>
<path d="M148.577 91.8953C150.456 91.7924 152.74 91.2619 154.207 92.8155C155.447 94.0606 155.23 95.9444 155.274 97.5413C155.376 98.8351 155.057 100.237 154.104 101.168C152.94 102.375 151.073 102.283 149.541 102.251C148.448 102.051 147.094 101.785 146.51 100.708C145.53 99.2573 145.984 97.3789 145.871 95.7495C145.671 94.0443 146.802 92.1443 148.577 91.8953ZM148.751 94.0335C147.744 94.7102 148.144 96.1447 148.052 97.1461C148.101 98.1151 147.912 99.4955 148.962 100.037C150.261 100.627 152.41 100.567 152.897 98.9596C153.314 97.1948 153.249 95.1595 152.139 93.6438C151.024 93.8278 149.812 93.6167 148.745 94.0281L148.751 94.0335Z" fill="#943B37" style="stroke-dasharray: 53.5694; stroke-dashoffset: 53.5694; animation-delay: 0.371429s; animation-duration: 0.497011s;"></path>
<path d="M156.427 91.787C158.316 91.8195 160.227 91.6463 162.11 91.852C163.87 91.9711 165.537 93.503 165.326 95.3544C165.299 97.2869 165.802 99.5604 164.411 101.168C162.782 102.484 160.519 102.045 158.592 102.115C157.791 102.251 156.643 101.931 156.546 100.984C156.259 97.9256 156.459 94.8509 156.427 91.787ZM158.603 93.725C158.603 95.8632 158.603 98.0014 158.603 100.145C159.81 100.102 161.033 100.178 162.224 99.9502C163.345 99.4414 163.15 97.9365 163.199 96.9404C163.144 95.9877 163.345 94.7264 162.424 94.1093C161.304 93.4056 159.837 93.9144 158.603 93.7196V93.725Z" fill="#943B37" style="stroke-dasharray: 55.2198; stroke-dashoffset: 55.2198; animation-delay: 0.4s; animation-duration: 0.489712s;"></path>
<path d="M166.539 91.7924C169.175 91.7924 171.822 91.7924 174.464 91.7924V93.7683C172.542 93.7683 170.631 93.7683 168.715 93.7791V95.9498C170.496 95.9498 172.282 95.9552 174.068 95.9552C174.036 96.5344 174.068 97.1461 174.068 97.7308C172.282 97.7308 170.496 97.7362 168.715 97.7362C168.715 98.5265 168.715 99.3168 168.715 100.107C170.626 100.107 172.547 100.107 174.464 100.113V102.094C172.174 102.094 169.884 102.202 167.6 101.996C167.118 101.915 166.712 101.509 166.631 101.027C166.382 97.9527 166.56 94.8672 166.533 91.787L166.539 91.7924Z" fill="#943B37" style="stroke-dasharray: 57.9806; stroke-dashoffset: 57.9806; animation-delay: 0.428571s; animation-duration: 0.478921s;"></path>
<path d="M175.654 91.7816C177.679 91.7816 179.709 91.7167 181.734 91.8682C182.952 91.9873 184.213 93.0267 183.996 94.3637C183.877 95.0999 184.256 96.0527 183.747 96.7023C183.471 97.0812 183.103 97.3681 182.746 97.6658C183.45 99.0733 184.018 100.556 184.446 102.072C183.666 102.072 182.892 102.072 182.118 102.072C181.712 100.849 181.349 99.5929 180.667 98.494C179.72 98.4994 178.783 98.5157 177.841 98.5319C177.836 99.7174 177.831 100.903 177.825 102.094H175.654C175.649 98.6564 175.649 95.219 175.654 91.7762V91.7816ZM177.831 93.7358C177.831 94.6885 177.825 95.6413 177.831 96.594C179.195 96.4966 180.575 96.4695 181.934 96.253C181.566 95.5655 182.129 94.3096 181.338 93.8441C180.185 93.6275 178.989 93.7899 177.831 93.7304V93.7358Z" fill="#943B37" style="stroke-dasharray: 56.5233; stroke-dashoffset: 56.5233; animation-delay: 0.457143s; animation-duration: 0.484408s;"></path>
<path d="M185.377 91.6788C186.015 91.9765 187.044 91.5543 187.547 92.1876C189.069 94.131 190.368 96.2421 191.84 98.2234C191.9 96.0797 191.91 93.9307 191.916 91.7924H194.087C194.087 95.2623 194.097 98.7376 194.081 102.213C193.605 102.148 192.657 102.018 192.187 101.959C190.422 100.053 189.198 97.7308 187.602 95.6954C187.553 97.8336 187.547 99.9718 187.547 102.105H185.377C185.371 98.6294 185.36 95.1541 185.382 91.6842L185.377 91.6788Z" fill="#943B37" style="stroke-dasharray: 57.4121; stroke-dashoffset: 57.4121; animation-delay: 0.485714s; animation-duration: 0.481008s;"></path>
<path d="M195.878 91.7924H198.054C198.054 95.2298 198.06 98.6618 198.054 102.099H195.878C195.873 98.6618 195.873 95.2244 195.878 91.7924Z" fill="#943B37" style="stroke-dasharray: 24.9652; stroke-dashoffset: 24.9652; animation-delay: 0.514286s; animation-duration: 0.857355s;"></path>
<path d="M199.446 91.7924C202.163 91.787 204.886 91.7708 207.614 91.8357C206.64 95.0241 204.009 97.2598 202.363 100.086C203.966 100.107 205.573 100.118 207.181 100.129V102.099C204.415 102.105 201.654 102.115 198.899 102.061C200.019 98.9271 202.553 96.6102 204.236 93.7899C202.634 93.7791 201.043 93.7737 199.451 93.7683V91.7924H199.446Z" fill="#943B37" style="stroke-dasharray: 49.7071; stroke-dashoffset: 49.7071; animation-delay: 0.542857s; animation-duration: 0.51698s;"></path>
<path d="M211.55 91.7437C212.199 91.8033 212.876 91.8899 213.531 91.9711C214.938 95.311 216.205 98.7052 217.51 102.083C216.719 102.083 215.929 102.083 215.15 102.083C214.873 101.298 214.581 100.513 214.278 99.7391C213.093 99.7228 211.923 99.7228 210.743 99.7174C210.451 100.497 210.153 101.282 209.872 102.067C209.087 102.072 208.307 102.083 207.528 102.088C208.832 98.6294 210.224 95.1974 211.544 91.7437H211.55ZM212.432 95.0512C211.956 95.966 211.685 96.9675 211.317 97.9256C212.118 97.9256 212.925 97.9256 213.737 97.9256C213.358 96.9675 213.093 95.966 212.622 95.0512C212.573 95.0512 212.481 95.0512 212.432 95.0512Z" fill="#943B37" style="stroke-dasharray: 45.9907; stroke-dashoffset: 45.9907; animation-delay: 0.571429s; animation-duration: 0.540785s;"></path>
<path d="M217.483 91.7924C220.325 91.787 223.167 91.787 226.009 91.7924V93.7574C224.948 93.7629 223.892 93.7737 222.842 93.7791C222.831 96.5507 222.842 99.3223 222.836 102.094H220.666C220.655 99.3223 220.666 96.5453 220.66 93.7737C219.599 93.7683 218.544 93.7574 217.493 93.7574V91.787L217.483 91.7924Z" fill="#943B37" style="stroke-dasharray: 37.6121; stroke-dashoffset: 37.6121; animation-delay: 0.6s; animation-duration: 0.617972s;"></path>
<path d="M227.005 91.7924H229.181C229.181 95.2298 229.186 98.6618 229.181 102.099H227.005C226.999 98.6618 226.994 95.2244 227.005 91.7924Z" fill="#943B37" style="stroke-dasharray: 24.9652; stroke-dashoffset: 24.9652; animation-delay: 0.628571s; animation-duration: 0.857355s;"></path>
<path d="M233.425 91.8845C235.222 91.7708 237.344 91.3594 238.849 92.6261C240.419 93.9469 240.077 96.3071 240.077 98.1313C240.132 99.7553 239.233 101.547 237.582 101.991C235.492 102.505 232.818 102.592 231.335 100.73C230.361 99.1707 230.61 97.1515 230.615 95.4139C230.653 93.7683 231.746 92.1551 233.419 91.8845H233.425ZM233.868 93.9198C233.062 94.1255 232.905 95.1324 232.797 95.8091C232.678 97.0649 232.634 98.4399 233.284 99.5713C234.004 100.529 235.4 100.335 236.44 100.243C237.669 99.8149 238.107 98.3208 237.939 97.1353C238.042 95.874 237.717 94.6615 236.992 93.6384C235.942 93.6871 234.902 93.7791 233.868 93.9144V93.9198Z" fill="#943B37" style="stroke-dasharray: 53.6097; stroke-dashoffset: 53.6097; animation-delay: 0.657143s; animation-duration: 0.496825s;"></path>
<path d="M241.312 91.5326C242.086 91.8574 243.19 91.7166 243.769 92.4528C245.242 94.3854 246.476 96.4911 247.97 98.4074C248.008 96.2042 248.013 94.0065 248.024 91.8087C248.685 91.7978 249.323 91.7816 249.995 91.7708V102.262C249.172 102.018 248.122 102.126 247.564 101.379C246.119 99.4847 244.89 97.4384 243.482 95.5167C243.455 97.7145 243.445 99.9069 243.445 102.105H241.274C241.263 98.5806 241.247 95.0566 241.312 91.538V91.5326Z" fill="#943B37" style="stroke-dasharray: 58.154; stroke-dashoffset: 58.154; animation-delay: 0.685714s; animation-duration: 0.478298s;"></path>
<path d="M64.0333 97.3464C65.6844 97.341 67.3354 97.341 68.9919 97.3464V99.3277C67.3408 99.3331 65.6844 99.3331 64.0333 99.3277V97.3464Z" fill="#943B37" style="stroke-dasharray: 13.8798; stroke-dashoffset: 13.8798; animation-delay: 0.714286s; animation-duration: 1.47s;"></path>
<path d="M123.909 97.3464C125.56 97.341 127.211 97.341 128.868 97.3464V99.3277C127.217 99.3331 125.56 99.3331 123.909 99.3277V97.3464Z" fill="#943B37" style="stroke-dasharray: 13.8806; stroke-dashoffset: 13.8806; animation-delay: 0.742857s; animation-duration: 1.46992s;"></path>
<path d="M115.47 1.91852e-07H134.503C138.557 0.822814 142.493 2.92857 144.896 6.36598C147.37 9.47318 148.226 13.5439 148.112 17.4415C148.025 21.9832 148.599 26.7469 146.878 31.0775C145.698 33.7191 143.987 36.2471 141.535 37.8494C141.253 38.0605 140.874 38.0605 140.609 37.8278C138.011 35.944 135.515 33.9032 133.123 31.7649C135.716 30.98 138.211 29.0583 138.66 26.2488C138.899 22.5408 138.915 18.8056 138.671 15.0975C138.509 11.7901 135.282 9.08343 132.029 9.17546C127.108 9.07802 122.172 8.96975 117.251 9.24041C114.144 9.46236 111.562 12.2231 111.286 15.2816C111.085 18.0478 111.166 20.8248 111.215 23.5963C111.329 25.3773 111.318 27.3964 112.476 28.8743C113.673 30.2871 115.264 31.5213 117.191 31.6296C121.23 31.9544 125.3 31.4456 129.339 31.8515C131.006 32.2575 132.251 33.5297 133.577 34.5419C138.222 38.3745 143.018 42.0176 147.592 45.9314C143.922 45.9855 140.257 46.0721 136.587 45.991C135.64 45.8935 134.579 46.0505 133.756 45.4713C131.883 44.1992 130.281 42.559 128.375 41.3301C127.574 40.8592 126.567 41.1244 125.701 41.0108C121.381 40.8863 116.915 41.4871 112.736 40.1122C109.256 38.8888 106.192 36.4636 104.286 33.2969C102.446 30.4279 101.812 26.9526 101.883 23.5909C101.986 19.1737 101.455 14.5887 102.911 10.3285C103.913 7.95206 105.298 5.67308 107.274 3.97874C109.548 1.88381 112.476 0.64959 115.47 -0.00541306V1.91852e-07Z" fill="#943B37" style="stroke-dasharray: 272.423; stroke-dashoffset: 272.423; animation-delay: 0.771429s; animation-duration: 0.706348s;"></path>
<path d="M152.957 3.83705e-07H196.474C196.474 3.03683 196.474 6.07908 196.474 9.11591C190.99 9.12132 185.507 9.11591 180.023 9.11591C180.007 19.688 180.028 30.2601 180.018 40.8321C176.91 40.8321 173.809 40.8321 170.707 40.8321C170.691 30.2601 170.712 19.688 170.701 9.11591C165.905 9.0293 161.104 9.29996 156.318 9.00223C155.252 8.92103 154.462 7.95747 154.196 6.97768C153.612 4.68246 153.449 2.30604 152.962 -0.0108261L152.957 3.83705e-07Z" fill="#943B37" style="stroke-dasharray: 166.443; stroke-dashoffset: 166.443; animation-delay: 0.8s; animation-duration: 0.506699s;"></path>
<path d="M207.008 0H209.931C211.155 0.665829 212.124 1.68352 212.822 2.88526C217.548 11.2 222.284 19.5093 227.053 27.797C231.395 20.0777 235.915 12.4667 240.262 4.74742C241.268 2.99353 242.237 0.990624 244.1 0H247.201C248.43 0.579217 249.383 1.60773 250 2.81489V40.8429C246.958 40.8429 243.921 40.8429 240.884 40.8429C240.841 34.2713 240.96 27.6996 240.808 21.1279C237.69 26.6332 234.653 32.1818 231.611 37.7249C231.064 38.656 230.464 39.5979 229.57 40.2367C228.428 41.119 226.864 40.8646 225.548 40.7184C223.816 40.3125 223.085 38.4611 222.192 37.1295C219.242 31.8082 216.346 26.46 213.352 21.1658C213.282 27.7267 213.352 34.2821 213.32 40.8429C210.213 40.8484 207.111 40.8429 204.009 40.8429C203.998 29.3398 204.025 17.8421 203.987 6.34433C204.085 5.03432 203.863 3.62688 204.42 2.38724C204.821 1.20715 205.969 0.552151 207.013 0.00541325L207.008 0Z" fill="#943B37" style="stroke-dasharray: 263.331; stroke-dashoffset: 263.331; animation-delay: 0.828571s; animation-duration: 0.687747s;"></path>
<path d="M101.953 66.4097C101.737 61.1318 106.354 56.2707 111.621 56.1245C115.508 55.5995 119.589 57.3155 121.803 60.5634C120.391 61.2455 118.983 61.9438 117.576 62.6367C115.14 60.1682 110.539 59.8868 108.26 62.6637C106.013 65.0131 106.722 69.2733 109.445 70.9568C110.836 72.1207 112.774 72.0341 114.463 71.8554C115.605 71.6552 116.601 70.9947 117.576 70.3993C117.549 69.7876 117.57 69.203 117.559 68.5967C115.508 68.5967 113.462 68.5913 111.415 68.5913C111.41 67.3354 111.415 66.0849 111.415 64.829C114.918 64.8236 118.415 64.8236 121.917 64.829C121.917 67.2055 122.02 69.5873 121.896 71.9637C121.63 73.0031 120.656 73.631 119.898 74.2968C116.699 76.7274 112.217 77.3012 108.471 75.91C104.654 74.4267 101.845 70.5508 101.948 66.4043L101.953 66.4097Z" fill="#943B37" style="stroke-dasharray: 117.354; stroke-dashoffset: 117.354; animation-delay: 0.857143s; animation-duration: 0.44277s;"></path>
<path d="M136.403 56.1083C140.1 56.1408 143.803 56.0055 147.5 56.1462C150.575 56.5955 153.022 59.4537 153.152 62.5392C153.698 65.4786 152.112 68.2448 149.877 70.0258C151.154 72.2885 152.594 74.4538 153.877 76.7165C151.815 76.7274 149.757 76.7274 147.706 76.7274C146.65 74.8436 145.681 72.911 144.664 71.011C143.559 70.9947 142.46 70.9839 141.367 70.9731C141.362 72.8894 141.367 74.8057 141.362 76.7274C139.711 76.7274 138.059 76.7274 136.414 76.7274C136.408 69.858 136.408 62.9885 136.414 56.1137L136.403 56.1083ZM141.356 60.65C141.356 62.5771 141.356 64.4988 141.356 66.426C143.018 66.4043 144.696 66.5126 146.342 66.2473C148.031 65.5923 148.902 63.2321 147.576 61.7814C146.06 59.8813 143.397 60.8774 141.356 60.65Z" fill="#943B37" style="stroke-dasharray: 106.715; stroke-dashoffset: 106.715; animation-delay: 0.885714s; animation-duration: 0.434998s;"></path>
<path d="M174.55 56.2112C176.185 56.0758 177.896 55.9567 179.498 56.4114C182.253 57.2884 184.651 59.3021 185.88 61.933C187.233 65.1268 187.206 69.0622 185.171 71.9691C182.703 75.9912 177.327 77.6801 172.937 76.0724C169.029 74.5404 165.911 70.5617 166.311 66.2148C166.084 61.4458 169.873 56.9528 174.55 56.2057V56.2112ZM175.541 60.7637C172.769 61.1968 170.452 63.9738 170.847 66.8103C170.988 69.7713 173.874 72.2993 176.835 71.9529C179.92 71.9691 182.518 68.8673 182.177 65.8467C181.934 62.7125 178.675 60.0816 175.546 60.7583L175.541 60.7637Z" fill="#943B37" style="stroke-dasharray: 100.569; stroke-dashoffset: 100.569; animation-delay: 0.914286s; animation-duration: 0.432143s;"></path>
<path d="M199.846 56.1083C201.492 56.1029 203.143 56.1029 204.799 56.1083C204.837 59.7189 204.68 63.3296 204.886 66.9348C204.983 68.8673 205.817 71.038 207.782 71.7634C209.07 72.1045 210.581 72.1586 211.728 71.3628C213.423 70.356 214.056 68.2827 214.078 66.4205C214.197 62.9885 214.078 59.5511 214.116 56.1137C215.761 56.1083 217.412 56.1083 219.069 56.1137C219.031 60.0708 219.177 64.0279 219.02 67.9796C218.701 72.0774 215.485 75.9587 211.312 76.4729C209.347 76.9006 207.284 76.6245 205.422 75.91C202.547 74.7624 200.593 71.9204 200.155 68.9052C199.532 64.6721 199.949 60.3685 199.846 56.1083Z" fill="#943B37" style="stroke-dasharray: 99.0302; stroke-dashoffset: 99.0302; animation-delay: 0.942857s; animation-duration: 0.431651s;"></path>
<path d="M233.343 56.1137C236.9 56.1354 240.467 55.9405 244.013 56.2112C247.05 56.3194 249.248 59.0044 249.995 61.7543V65.7222C249.421 67.8334 248.127 69.9229 246.032 70.7782C243.585 71.8176 240.89 71.574 238.313 71.6064C238.302 73.3116 238.291 75.0168 238.286 76.7274C236.635 76.7274 234.989 76.7274 233.343 76.7274C233.338 69.858 233.343 62.9831 233.343 56.1137ZM238.302 60.65C238.302 62.7125 238.302 64.7803 238.302 66.8428C239.969 66.8049 241.658 66.9077 243.32 66.6587C245.604 65.8467 245.778 61.9817 243.52 61.0019C241.896 60.2819 240.013 60.8124 238.302 60.65Z" fill="#943B37" style="stroke-dasharray: 92.0216; stroke-dashoffset: 92.0216; animation-delay: 0.971429s; animation-duration: 0.430711s;"></path>
</g>
<defs>
<style>.animate-svg path{-webkit-animation:draw ease-in-out forwards;animation:draw ease-in-out forwards;stroke:#943B36}.animate-svg{-webkit-animation:fillopacity 3 ease-in-out forwards;animation:fillopacity 3s ease-in-out forwards}@-webkit-keyframes draw{100%{stroke-dashoffset:0}}@keyframes draw{100%{stroke-dashoffset:0}}@-webkit-keyframes fillopacity{0%,70%{fill-opacity:0;stroke-width:0.5%}100%{fill-opacity:1;stroke-width:0}}@keyframes fillopacity{0%,70%{fill-opacity:0;stroke-width:0.5%}100%{fill-opacity:1;stroke-width:0}}</style>
<clipPath id="clip0_1_2">
<rect width="250" height="102.695" fill="white"></rect>
</clipPath>
</defs>
</svg>